<?xml version="1.0" encoding="UTF-8"?>
<svg xmlns="http://www.w3.org/2000/svg" version="1.1" viewBox="0 0 569.2 183.7">
  <defs>
    <style>
      .cls-1 {
        fill: #a7dce0;
      }

      .cls-2 {
        fill: #4ab6ac;
      }

      .cls-3 {
        fill: #4d4d4f;
      }

      .cls-4 {
        fill: #008b74;
      }
    </style>
  </defs>
  <!-- Generator: Adobe Illustrator 28.6.0, SVG Export Plug-In . SVG Version: 1.2.0 Build 709)  -->
  <g>
    <g id="Layer_1">
      <g>
        <path class="cls-3" d="M210.2,41c-1.5-3.7-3-6.4-4.6-8-1.6-1.6-3.4-2.5-5.5-2.8v-2l4.3-.2c4.6,0,8.5.8,12,2.5,3.4,1.7,6.2,5.2,8.3,10.5l13.8,35.3,9.2-26.2-3.6-9.1c-1.5-3.7-3.1-6.3-4.9-7.9-1.7-1.6-3.7-2.5-6-2.8v-2l4-.2c4.6,0,8.5.9,12,2.6,3.4,1.7,6.2,5.2,8.3,10.4l14.6,37.2,17.5-49.2h4.9l-24.2,68.4h-4.1l-15.7-40.1-14,40.1h-4.1l-22.1-56.4h0Z"></path>
        <path class="cls-3" d="M305,94.2c-3.5-2.2-6.3-5.2-8.2-8.9-1.9-3.8-2.9-8.1-2.9-12.8s1-9.8,2.9-13.6c1.9-3.7,4.6-6.6,8-8.5,3.4-1.9,7.3-2.9,11.5-2.9s8,.9,11.4,2.6c3.4,1.7,6.1,4.1,8.1,7.2,2,3.1,3,6.7,3,10.7s0,2.8-.2,4.4l-.2,2h-30.8c0,6.5,1,11.2,3,14.2,2,3,4.7,4.4,8.3,4.4s6-.7,8.2-2.2c2.2-1.5,4.3-3.6,6.4-6.3l3.2,2.4c-2,3.1-4.4,5.6-7.4,7.7-3,2-6.9,3.1-11.9,3.1s-8.8-1.1-12.4-3.3h0ZM325.1,69.7c0-6.4-.8-10.9-2.2-13.6-1.5-2.7-3.6-4-6.4-4s-4.7,1.4-6.3,4.1c-1.6,2.8-2.4,7.3-2.4,13.5h17.4Z"></path>
        <path class="cls-3" d="M349.7,93.8c-3-2.5-4.5-5.8-4.5-10.1s.8-6.2,2.4-8.5c1.6-2.2,4.4-4,8.4-5.1,4-1.2,9.6-1.7,16.8-1.7h1.5c0-5.9-.8-10.1-2.5-12.6-1.6-2.5-4.1-3.7-7.3-3.7s-4.8.6-6.5,1.9c-1.7,1.3-2.9,3.7-3.7,7.3h-5.6c0-2.3.2-4.3.5-5.9.3-1.6,1-3.1,2.1-4.3,2.1-2.4,7.2-3.6,15.3-3.6s12,1.8,15.6,5.4c3.6,3.6,5.4,8.9,5.4,16.1v27.6h-8.7l-3.6-4.6h-.5c-.6,1-1.6,1.9-2.9,2.9-2.3,1.8-5.5,2.8-9.4,2.8s-9.8-1.2-12.8-3.7h0ZM369.2,91.5c1-.6,2-1.4,3-2.4.9-1,1.6-2.1,2-3.4v-12.8h-1.5c-4.8,0-8.3.9-10.5,2.6-2.2,1.7-3.3,4.4-3.3,8.1s.6,4.9,1.7,6.4c1.2,1.5,2.8,2.2,4.9,2.2s2.7-.3,3.7-.9h0Z"></path>
        <path class="cls-3" d="M399.4,42.3c0-3.5-.5-6-1.4-7.7-1-1.7-2.9-2.5-5.7-2.5h-1v-3.1h12.3c2.5,0,4.3.4,5.6,1.2,1.3.8,2.2,2.2,2.8,4,.5,1.9.8,4.5.8,8v54.2h-13.3v-54.2h0Z"></path>
        <path class="cls-3" d="M431.4,93.7c-2.6-2.6-3.9-6.3-3.9-11.1v-29.5h-6.1v-4.6h6.1v-9.2l5.1-6.1h8.2v15.3h11.2v4.6h-11.2v30.1c0,3.7.4,6.2,1.3,7.6.9,1.4,2.2,2.1,4,2.1s3.8-.4,5.7-1.3c.7-.4,1.5-.9,2.4-1.4l1.4,2.9c-.9.7-1.9,1.5-3.2,2.2-2.9,1.5-6.2,2.2-10.1,2.2s-8.3-1.3-10.9-3.8h0Z"></path>
        <path class="cls-3" d="M461.5,42.3c0-3.5-.5-6-1.4-7.7-1-1.7-2.9-2.5-5.7-2.5h-1v-3.1h12.3c2.5,0,4.3.4,5.6,1.2,1.3.8,2.2,2.2,2.8,4,.5,1.9.8,4.5.8,8v9c.6-.5,1.7-1.1,3.2-1.9,2.7-1.3,5.4-1.9,8.1-1.9,5.5,0,10.1,1.4,13.8,4.2,3.7,2.8,5.6,7.6,5.6,14.5v30.4h-13.3v-29.8c0-4.9-.9-8.5-2.6-10.7s-3.9-3.4-6.6-3.4-3.8.6-5.8,1.8c-.8.5-1.6,1.1-2.4,1.7v40.4h-13.3v-54.2h0Z"></path>
        <path class="cls-2" d="M208.3,127.9c0-3.5-.5-6-1.4-7.7-1-1.7-2.9-2.5-5.7-2.5h-1v-3.1h12.3c2.5,0,4.3.4,5.6,1.2,1.3.8,2.2,2.2,2.8,4,.5,1.9.8,4.5.8,8v16.9h27.6v-30.1h13.3v54.2c0,3.5.5,6,1.4,7.7,1,1.7,2.9,2.5,5.7,2.5h1v3.1h-12.3c-2.5,0-4.3-.4-5.6-1.2-1.3-.8-2.2-2.1-2.8-4-.5-1.9-.8-4.6-.8-8.1v-19.4h-27.6v32.7h-13.3v-54.2h0Z"></path>
        <path class="cls-2" d="M286.1,179.8c-3.5-2.2-6.3-5.2-8.2-8.9-1.9-3.8-2.9-8.1-2.9-12.8s1-9.8,2.9-13.6c1.9-3.7,4.6-6.6,8-8.5,3.4-1.9,7.3-2.9,11.5-2.9s8,.9,11.4,2.6c3.4,1.7,6.1,4.1,8.1,7.2,2,3.1,3,6.7,3,10.7s0,2.8-.2,4.4l-.2,2h-30.8c0,6.5,1,11.2,3,14.2,2,3,4.7,4.4,8.3,4.4s6-.7,8.2-2.2c2.2-1.5,4.3-3.6,6.4-6.3l3.2,2.3c-2,3.1-4.4,5.6-7.4,7.7-3,2-6.9,3.1-11.9,3.1s-8.8-1.1-12.4-3.3h0ZM306.2,155.3c0-6.4-.8-10.9-2.2-13.6-1.5-2.7-3.6-4-6.4-4s-4.7,1.4-6.3,4.1c-1.6,2.8-2.4,7.3-2.4,13.5h17.4Z"></path>
        <path class="cls-2" d="M330.7,179.3c-3-2.5-4.5-5.8-4.5-10.1s.8-6.2,2.4-8.5c1.6-2.2,4.4-3.9,8.4-5.1,4-1.2,9.6-1.7,16.8-1.7h1.5c0-5.9-.8-10.1-2.5-12.6-1.6-2.5-4.1-3.7-7.3-3.7s-4.8.6-6.5,1.9c-1.7,1.3-2.9,3.7-3.7,7.3h-5.6c0-2.3.2-4.3.5-5.9.3-1.6,1-3.1,2.1-4.3,2.1-2.4,7.2-3.6,15.3-3.6s12,1.8,15.6,5.4c3.6,3.6,5.4,8.9,5.4,16.1v27.6h-8.7l-3.6-4.6h-.5c-.6,1-1.6,1.9-2.9,2.9-2.3,1.8-5.5,2.8-9.4,2.8s-9.8-1.2-12.8-3.7h0ZM350.3,177.1c1-.6,2-1.4,3-2.4.9-1,1.6-2.1,2-3.4v-12.8h-1.5c-4.8,0-8.3.9-10.5,2.6-2.2,1.7-3.3,4.4-3.3,8.1s.6,4.9,1.7,6.4c1.2,1.5,2.8,2.2,4.9,2.2s2.7-.3,3.7-.9h0Z"></path>
        <path class="cls-2" d="M380.5,127.9c0-3.5-.5-6-1.4-7.7-1-1.7-2.9-2.5-5.7-2.5h-1v-3.1h12.3c2.5,0,4.3.4,5.6,1.2,1.3.8,2.2,2.2,2.8,4,.5,1.9.8,4.5.8,8v54.2h-13.3v-54.2h0Z"></path>
        <path class="cls-2" d="M412.4,179.2c-2.6-2.6-3.9-6.3-3.9-11.1v-29.5h-6.1v-4.6h6.1v-9.2l5.1-6.1h8.2v15.3h11.2v4.6h-11.2v30.1c0,3.7.4,6.2,1.3,7.6.9,1.4,2.2,2.1,4,2.1s3.8-.4,5.7-1.3c.7-.4,1.5-.9,2.4-1.4l1.4,2.9c-.9.7-1.9,1.5-3.2,2.2-2.9,1.5-6.2,2.2-10.1,2.2s-8.3-1.3-10.9-3.8h0Z"></path>
        <path class="cls-2" d="M442.6,127.9c0-3.5-.5-6-1.4-7.7-1-1.7-2.9-2.5-5.7-2.5h-1v-3.1h12.3c2.5,0,4.3.4,5.6,1.2,1.3.8,2.2,2.2,2.8,4,.5,1.9.8,4.5.8,8v9c.6-.5,1.7-1.1,3.2-1.9,2.7-1.3,5.4-1.9,8.1-1.9,5.5,0,10.1,1.4,13.8,4.2,3.7,2.8,5.6,7.6,5.6,14.5v30.4h-13.3v-29.8c0-4.9-.9-8.5-2.6-10.7-1.7-2.2-3.9-3.4-6.6-3.4s-3.8.6-5.8,1.8c-.8.5-1.6,1.1-2.3,1.7v40.4h-13.3v-54.2h0Z"></path>
        <path class="cls-3" d="M514.8,181.6c-2.3-1.4-4.1-3.3-5.4-5.7-1.2-2.4-1.8-5.2-1.8-8.2s.7-6,2-8.6c1.4-2.6,3.2-4.7,5.6-6.1,2.4-1.5,5-2.2,8-2.2s5.1.4,7,1.1c1.9.7,3.3,1.6,4.3,2.8.6.7.9,1.6,1,2.7.1,1.1.2,2.6.2,4.5h-1.4c-.6-2.9-1.7-5.1-3.3-6.6-1.6-1.5-3.7-2.3-6.3-2.3s-5.8,1.1-7.6,3.4c-1.9,2.3-2.8,6.1-2.8,11.5s.9,7.3,2.6,10c1.7,2.6,4.3,4,7.9,4s4.2-.6,6.1-1.8c1.8-1.2,3.3-2.8,4.5-5l1.7,1.3c-1.5,2.6-3.3,4.6-5.5,5.8-2.1,1.2-4.9,1.8-8.1,1.8s-6-.7-8.4-2.1h0Z"></path>
        <path class="cls-3" d="M545,181.7c-1.7-1-3-2.4-4-4.2-.9-1.7-1.4-3.7-1.4-5.9s.5-4.1,1.4-5.9c.9-1.7,2.2-3.1,4-4.2,1.7-1,3.7-1.5,6-1.5s4.3.5,6,1.5c1.7,1,3,2.4,4,4.2.9,1.8,1.4,3.7,1.4,5.9s-.5,4.1-1.4,5.9c-.9,1.8-2.2,3.1-4,4.2-1.7,1-3.7,1.5-6,1.5s-4.3-.5-6-1.5h0ZM554.7,178.5c.9-1.7,1.3-4,1.3-6.9s-.4-5.1-1.3-6.9c-.9-1.7-2.1-2.6-3.7-2.6s-2.8.9-3.7,2.6c-.9,1.7-1.3,4-1.3,6.9s.4,5.1,1.3,6.9c.9,1.7,2.1,2.6,3.7,2.6s2.8-.9,3.7-2.6h0Z"></path>
        <path class="cls-3" d="M569.2,181.1c0,1.2-1,2.2-2.2,2.2s-2.2-1-2.2-2.2,1-2.2,2.2-2.2,2.2,1,2.2,2.2h0Z"></path>
        <path class="cls-2" d="M104.7,41.9c0-10.1-4.7-19-12-24.9-7.3,5.8-12,14.8-12,24.9s4.7,19,12,24.9c7.3-5.8,12-14.8,12-24.9h0Z"></path>
        <path class="cls-4" d="M131.4,37.5c3.8-7,4-15,1.2-21.8-7.3,1.3-13.9,5.7-17.8,12.7-3.8,7-4,15-1.2,21.8,7.3-1.3,13.9-5.7,17.8-12.7h0Z"></path>
        <path class="cls-1" d="M116.1,73.3c2-3.7,2.1-8,.6-11.6-3.9.7-7.4,3-9.4,6.7-2,3.7-2.1,8-.6,11.6,3.9-.7,7.4-3,9.4-6.7h0Z"></path>
        <path class="cls-4" d="M117.7,11.6c1.6-3.9,1.2-8.1-.7-11.6-3.8,1.1-7,3.8-8.6,7.7-1.6,3.9-1.2,8.1.7,11.6,3.8-1.1,7-3.8,8.6-7.7h0Z"></path>
        <path class="cls-4" d="M155.6,33.2c3.5-2.4,5.5-6.1,5.8-10-3.7-1.2-8-.7-11.5,1.7-3.5,2.4-5.5,6.1-5.8,10,3.7,1.2,8,.7,11.5-1.7h0Z"></path>
        <path class="cls-2" d="M147,59.7c5.8-4,9.2-10.2,9.7-16.8-6.3-1.9-13.3-1.1-19.1,2.9-5.8,4-9.2,10.2-9.7,16.8,6.3,1.9,13.3,1.1,19.1-2.9h0Z"></path>
        <path class="cls-4" d="M164.3,85.5c9.1-1,16.7-6,21.2-13.1-5.9-6-14.5-9.4-23.5-8.4-9.1,1-16.7,6-21.2,13.1,5.9,6,14.5,9.4,23.5,8.4h0Z"></path>
        <path class="cls-2" d="M149.1,113.6c7.5,3.2,15.7,2.6,22.3-.9-2-7.3-7.2-13.7-14.6-16.9-7.5-3.2-15.7-2.6-22.3.9,2,7.3,7.2,13.7,14.6,16.9h0Z"></path>
        <path class="cls-1" d="M129.6,127.2c2.6,3.4,6.5,5.3,10.5,5.4,1-3.9.3-8.1-2.3-11.6-2.6-3.4-6.5-5.3-10.5-5.4-1,3.9-.3,8.1,2.3,11.6h0Z"></path>
        <path class="cls-4" d="M54.2,37.5c-3.8-7-4-15-1.2-21.8,7.3,1.3,13.9,5.7,17.8,12.7,3.8,7,4,15,1.2,21.8-7.3-1.3-13.9-5.7-17.8-12.7h0Z"></path>
        <path class="cls-1" d="M69.4,73.3c-2-3.7-2.1-8-.6-11.6,3.9.7,7.4,3,9.4,6.7,2,3.7,2.1,8,.6,11.6-3.9-.7-7.4-3-9.4-6.7h0Z"></path>
        <path class="cls-4" d="M67.8,11.6c-1.6-3.9-1.2-8.1.7-11.6,3.8,1.1,7,3.8,8.6,7.7,1.6,3.9,1.2,8.1-.7,11.6-3.8-1.1-7-3.8-8.6-7.7h0Z"></path>
        <path class="cls-4" d="M29.9,33.2c-3.5-2.4-5.5-6.1-5.8-10,3.7-1.2,8-.7,11.5,1.7,3.5,2.4,5.5,6.1,5.8,10-3.7,1.2-8,.7-11.5-1.7h0Z"></path>
        <path class="cls-2" d="M38.5,59.7c-5.8-4-9.2-10.2-9.7-16.8,6.3-1.9,13.3-1.1,19.1,2.9,5.8,4,9.2,10.2,9.7,16.8-6.3,1.9-13.3,1.1-19.1-2.9h0Z"></path>
        <path class="cls-4" d="M21.2,85.5c-9.1-1-16.7-6-21.2-13.1,5.9-6,14.5-9.4,23.5-8.4,9.1,1,16.7,6,21.2,13.1-5.9,6-14.5,9.4-23.5,8.4h0Z"></path>
        <path class="cls-2" d="M36.4,113.6c-7.5,3.2-15.7,2.6-22.3-.9,2-7.3,7.2-13.7,14.6-16.9,7.5-3.2,15.7-2.6,22.3.9-2,7.3-7.2,13.7-14.6,16.9h0Z"></path>
        <path class="cls-1" d="M55.9,127.2c-2.6,3.4-6.5,5.3-10.5,5.4-1-3.9-.3-8.1,2.3-11.6s6.5-5.3,10.5-5.4c1,3.9.3,8.1-2.3,11.6h0Z"></path>
        <path class="cls-3" d="M54.9,181.9c6.2-1.9,12.4-2.8,18.5-3.5,3.1-.4,6.2-.5,9.3-.7,3.1-.1,6.2-.2,9.3-.2,3.1,0,6.2.1,9.3.2,3.1.2,6.2.3,9.3.7,6.2.7,12.4,1.6,18.5,3.5v.5l-37.1.3-37.1-.3v-.5h0Z"></path>
        <path class="cls-3" d="M107.1,179.9s-8.5-35.7-3.5-51c9.2-28.1,31.7-56.7,31.7-56.7,0,0-16.5,9.5-25.5,18.3-9.1,8.8-17,20.2-17,20.2,0,0-8-11.3-17-20.1-9.1-8.8-25.5-18.3-25.5-18.3,0,0,22.6,28.6,31.7,56.7,5,15.3-3.5,51-3.5,51"></path>
      </g>
    </g>
  </g>
</svg>
