<?xml version="1.0" encoding="UTF-8" standalone="no"?>
<svg
   version="1.1"
   viewBox="0 0 520.2 183.7"
   id="svg35"
   sodipodi:docname="wealth-health-logo.svg"
   width="520.20001"
   height="183.7"
   inkscape:version="1.3.2 (091e20e, 2023-11-25, custom)"
   xmlns:inkscape="http://www.inkscape.org/namespaces/inkscape"
   xmlns:sodipodi="http://sodipodi.sourceforge.net/DTD/sodipodi-0.dtd"
   xmlns="http://www.w3.org/2000/svg"
   xmlns:svg="http://www.w3.org/2000/svg">
  <sodipodi:namedview
     id="namedview35"
     pagecolor="#ffffff"
     bordercolor="#000000"
     borderopacity="0.25"
     inkscape:showpageshadow="2"
     inkscape:pageopacity="0.0"
     inkscape:pagecheckerboard="0"
     inkscape:deskcolor="#d1d1d1"
     inkscape:zoom="1.623331"
     inkscape:cx="284.60001"
     inkscape:cy="92.094591"
     inkscape:window-width="1920"
     inkscape:window-height="1017"
     inkscape:window-x="-8"
     inkscape:window-y="352"
     inkscape:window-maximized="1"
     inkscape:current-layer="g34" />
  <defs
     id="defs1">
    <style
       id="style1">
      .cls-1 {
        fill: #a7dce0;
      }

      .cls-2 {
        fill: #4ab6ac;
      }

      .cls-3 {
        fill: #4d4d4f;
      }

      .cls-4 {
        fill: #008b74;
      }
    </style>
  </defs>
  <!-- Generator: Adobe Illustrator 28.6.0, SVG Export Plug-In . SVG Version: 1.2.0 Build 709)  -->
  <g
     id="g35">
    <g
       id="Layer_1">
      <g
         id="g34">
        <path
           class="cls-3"
           d="m 210.2,41 c -1.5,-3.7 -3,-6.4 -4.6,-8 -1.6,-1.6 -3.4,-2.5 -5.5,-2.8 v -2 l 4.3,-0.2 c 4.6,0 8.5,0.8 12,2.5 3.4,1.7 6.2,5.2 8.3,10.5 l 13.8,35.3 9.2,-26.2 -3.6,-9.1 c -1.5,-3.7 -3.1,-6.3 -4.9,-7.9 -1.7,-1.6 -3.7,-2.5 -6,-2.8 v -2 l 4,-0.2 c 4.6,0 8.5,0.9 12,2.6 3.4,1.7 6.2,5.2 8.3,10.4 l 14.6,37.2 17.5,-49.2 h 4.9 l -24.2,68.4 h -4.1 l -15.7,-40.1 -14,40.1 h -4.1 L 210.3,41.1 v 0 z"
           id="path1" />
        <path
           class="cls-3"
           d="m 305,94.2 c -3.5,-2.2 -6.3,-5.2 -8.2,-8.9 -1.9,-3.8 -2.9,-8.1 -2.9,-12.8 0,-4.7 1,-9.8 2.9,-13.6 1.9,-3.7 4.6,-6.6 8,-8.5 3.4,-1.9 7.3,-2.9 11.5,-2.9 4.2,0 8,0.9 11.4,2.6 3.4,1.7 6.1,4.1 8.1,7.2 2,3.1 3,6.7 3,10.7 0,4 0,2.8 -0.2,4.4 l -0.2,2 h -30.8 c 0,6.5 1,11.2 3,14.2 2,3 4.7,4.4 8.3,4.4 3.6,0 6,-0.7 8.2,-2.2 2.2,-1.5 4.3,-3.6 6.4,-6.3 l 3.2,2.4 c -2,3.1 -4.4,5.6 -7.4,7.7 -3,2 -6.9,3.1 -11.9,3.1 -5,0 -8.8,-1.1 -12.4,-3.3 v 0 z m 20.1,-24.5 c 0,-6.4 -0.8,-10.9 -2.2,-13.6 -1.5,-2.7 -3.6,-4 -6.4,-4 -2.8,0 -4.7,1.4 -6.3,4.1 -1.6,2.8 -2.4,7.3 -2.4,13.5 h 17.4 z"
           id="path2" />
        <path
           class="cls-3"
           d="m 349.7,93.8 c -3,-2.5 -4.5,-5.8 -4.5,-10.1 0,-4.3 0.8,-6.2 2.4,-8.5 1.6,-2.2 4.4,-4 8.4,-5.1 4,-1.2 9.6,-1.7 16.8,-1.7 h 1.5 c 0,-5.9 -0.8,-10.1 -2.5,-12.6 -1.6,-2.5 -4.1,-3.7 -7.3,-3.7 -3.2,0 -4.8,0.6 -6.5,1.9 -1.7,1.3 -2.9,3.7 -3.7,7.3 h -5.6 c 0,-2.3 0.2,-4.3 0.5,-5.9 0.3,-1.6 1,-3.1 2.1,-4.3 2.1,-2.4 7.2,-3.6 15.3,-3.6 8.1,0 12,1.8 15.6,5.4 3.6,3.6 5.4,8.9 5.4,16.1 v 27.6 h -8.7 L 375.3,92 h -0.5 c -0.6,1 -1.6,1.9 -2.9,2.9 -2.3,1.8 -5.5,2.8 -9.4,2.8 -3.9,0 -9.8,-1.2 -12.8,-3.7 v 0 z m 19.5,-2.3 c 1,-0.6 2,-1.4 3,-2.4 0.9,-1 1.6,-2.1 2,-3.4 V 72.9 h -1.5 c -4.8,0 -8.3,0.9 -10.5,2.6 -2.2,1.7 -3.3,4.4 -3.3,8.1 0,3.7 0.6,4.9 1.7,6.4 1.2,1.5 2.8,2.2 4.9,2.2 2.1,0 2.7,-0.3 3.7,-0.9 v 0 z"
           id="path3" />
        <path
           class="cls-3"
           d="m 399.4,42.3 c 0,-3.5 -0.5,-6 -1.4,-7.7 -1,-1.7 -2.9,-2.5 -5.7,-2.5 h -1 V 29 h 12.3 c 2.5,0 4.3,0.4 5.6,1.2 1.3,0.8 2.2,2.2 2.8,4 0.5,1.9 0.8,4.5 0.8,8 v 54.2 h -13.3 v -54.2 0 z"
           id="path4" />
        <path
           class="cls-3"
           d="m 431.4,93.7 c -2.6,-2.6 -3.9,-6.3 -3.9,-11.1 V 53.1 h -6.1 v -4.6 h 6.1 v -9.2 l 5.1,-6.1 h 8.2 V 48.5 H 452 v 4.6 h -11.2 v 30.1 c 0,3.7 0.4,6.2 1.3,7.6 0.9,1.4 2.2,2.1 4,2.1 1.8,0 3.8,-0.4 5.7,-1.3 0.7,-0.4 1.5,-0.9 2.4,-1.4 l 1.4,2.9 c -0.9,0.7 -1.9,1.5 -3.2,2.2 -2.9,1.5 -6.2,2.2 -10.1,2.2 -3.9,0 -8.3,-1.3 -10.9,-3.8 z"
           id="path5" />
        <path
           class="cls-3"
           d="m 461.5,42.3 c 0,-3.5 -0.5,-6 -1.4,-7.7 -1,-1.7 -2.9,-2.5 -5.7,-2.5 h -1 V 29 h 12.3 c 2.5,0 4.3,0.4 5.6,1.2 1.3,0.8 2.2,2.2 2.8,4 0.5,1.9 0.8,4.5 0.8,8 v 9 c 0.6,-0.5 1.7,-1.1 3.2,-1.9 2.7,-1.3 5.4,-1.9 8.1,-1.9 5.5,0 10.1,1.4 13.8,4.2 3.7,2.8 5.6,7.6 5.6,14.5 V 96.5 H 492.3 V 66.7 c 0,-4.9 -0.9,-8.5 -2.6,-10.7 -1.7,-2.2 -3.9,-3.4 -6.6,-3.4 -2.7,0 -3.8,0.6 -5.8,1.8 -0.8,0.5 -1.6,1.1 -2.4,1.7 v 40.4 h -13.3 v -54.2 0 z"
           id="path6" />
        <path
           class="cls-2"
           d="m 208.3,127.9 c 0,-3.5 -0.5,-6 -1.4,-7.7 -1,-1.7 -2.9,-2.5 -5.7,-2.5 h -1 v -3.1 h 12.3 c 2.5,0 4.3,0.4 5.6,1.2 1.3,0.8 2.2,2.2 2.8,4 0.5,1.9 0.8,4.5 0.8,8 v 16.9 h 27.6 v -30.1 h 13.3 v 54.2 c 0,3.5 0.5,6 1.4,7.7 1,1.7 2.9,2.5 5.7,2.5 h 1 v 3.1 h -12.3 c -2.5,0 -4.3,-0.4 -5.6,-1.2 -1.3,-0.8 -2.2,-2.1 -2.8,-4 -0.5,-1.9 -0.8,-4.6 -0.8,-8.1 v -19.4 h -27.6 v 32.7 h -13.3 z"
           id="path7" />
        <path
           class="cls-2"
           d="m 286.1,179.8 c -3.5,-2.2 -6.3,-5.2 -8.2,-8.9 -1.9,-3.8 -2.9,-8.1 -2.9,-12.8 0,-4.7 1,-9.8 2.9,-13.6 1.9,-3.7 4.6,-6.6 8,-8.5 3.4,-1.9 7.3,-2.9 11.5,-2.9 4.2,0 8,0.9 11.4,2.6 3.4,1.7 6.1,4.1 8.1,7.2 2,3.1 3,6.7 3,10.7 0,4 0,2.8 -0.2,4.4 l -0.2,2 h -30.8 c 0,6.5 1,11.2 3,14.2 2,3 4.7,4.4 8.3,4.4 3.6,0 6,-0.7 8.2,-2.2 2.2,-1.5 4.3,-3.6 6.4,-6.3 l 3.2,2.3 c -2,3.1 -4.4,5.6 -7.4,7.7 -3,2 -6.9,3.1 -11.9,3.1 -5,0 -8.8,-1.1 -12.4,-3.3 v 0 z m 20.1,-24.5 c 0,-6.4 -0.8,-10.9 -2.2,-13.6 -1.5,-2.7 -3.6,-4 -6.4,-4 -2.8,0 -4.7,1.4 -6.3,4.1 -1.6,2.8 -2.4,7.3 -2.4,13.5 h 17.4 z"
           id="path8" />
        <path
           class="cls-2"
           d="m 330.7,179.3 c -3,-2.5 -4.5,-5.8 -4.5,-10.1 0,-4.3 0.8,-6.2 2.4,-8.5 1.6,-2.2 4.4,-3.9 8.4,-5.1 4,-1.2 9.6,-1.7 16.8,-1.7 h 1.5 c 0,-5.9 -0.8,-10.1 -2.5,-12.6 -1.6,-2.5 -4.1,-3.7 -7.3,-3.7 -3.2,0 -4.8,0.6 -6.5,1.9 -1.7,1.3 -2.9,3.7 -3.7,7.3 h -5.6 c 0,-2.3 0.2,-4.3 0.5,-5.9 0.3,-1.6 1,-3.1 2.1,-4.3 2.1,-2.4 7.2,-3.6 15.3,-3.6 8.1,0 12,1.8 15.6,5.4 3.6,3.6 5.4,8.9 5.4,16.1 v 27.6 h -8.7 l -3.6,-4.6 h -0.5 c -0.6,1 -1.6,1.9 -2.9,2.9 -2.3,1.8 -5.5,2.8 -9.4,2.8 -3.9,0 -9.8,-1.2 -12.8,-3.7 v 0 z m 19.6,-2.2 c 1,-0.6 2,-1.4 3,-2.4 0.9,-1 1.6,-2.1 2,-3.4 v -12.8 h -1.5 c -4.8,0 -8.3,0.9 -10.5,2.6 -2.2,1.7 -3.3,4.4 -3.3,8.1 0,3.7 0.6,4.9 1.7,6.4 1.2,1.5 2.8,2.2 4.9,2.2 2.1,0 2.7,-0.3 3.7,-0.9 v 0 z"
           id="path9" />
        <path
           class="cls-2"
           d="m 380.5,127.9 c 0,-3.5 -0.5,-6 -1.4,-7.7 -1,-1.7 -2.9,-2.5 -5.7,-2.5 h -1 v -3.1 h 12.3 c 2.5,0 4.3,0.4 5.6,1.2 1.3,0.8 2.2,2.2 2.8,4 0.5,1.9 0.8,4.5 0.8,8 V 182 h -13.3 v -54.2 0 z"
           id="path10" />
        <path
           class="cls-2"
           d="m 412.4,179.2 c -2.6,-2.6 -3.9,-6.3 -3.9,-11.1 v -29.5 h -6.1 V 134 h 6.1 v -9.2 l 5.1,-6.1 h 8.2 V 134 H 433 v 4.6 h -11.2 v 30.1 c 0,3.7 0.4,6.2 1.3,7.6 0.9,1.4 2.2,2.1 4,2.1 1.8,0 3.8,-0.4 5.7,-1.3 0.7,-0.4 1.5,-0.9 2.4,-1.4 l 1.4,2.9 c -0.9,0.7 -1.9,1.5 -3.2,2.2 -2.9,1.5 -6.2,2.2 -10.1,2.2 -3.9,0 -8.3,-1.3 -10.9,-3.8 z"
           id="path11" />
        <path
           class="cls-2"
           d="m 442.6,127.9 c 0,-3.5 -0.5,-6 -1.4,-7.7 -1,-1.7 -2.9,-2.5 -5.7,-2.5 h -1 v -3.1 h 12.3 c 2.5,0 4.3,0.4 5.6,1.2 1.3,0.8 2.2,2.2 2.8,4 0.5,1.9 0.8,4.5 0.8,8 v 9 c 0.6,-0.5 1.7,-1.1 3.2,-1.9 2.7,-1.3 5.4,-1.9 8.1,-1.9 5.5,0 10.1,1.4 13.8,4.2 3.7,2.8 5.6,7.6 5.6,14.5 v 30.4 h -13.3 v -29.8 c 0,-4.9 -0.9,-8.5 -2.6,-10.7 -1.7,-2.2 -3.9,-3.4 -6.6,-3.4 -2.7,0 -3.8,0.6 -5.8,1.8 -0.8,0.5 -1.6,1.1 -2.3,1.7 v 40.4 h -13.3 v -54.2 0 z"
           id="path12" />
        <path
           class="cls-2"
           d="m 104.7,41.9 c 0,-10.1 -4.7,-19 -12,-24.9 -7.3,5.8 -12,14.8 -12,24.9 0,10.1 4.7,19 12,24.9 7.3,-5.8 12,-14.8 12,-24.9 z"
           id="path16" />
        <path
           class="cls-4"
           d="m 131.4,37.5 c 3.8,-7 4,-15 1.2,-21.8 -7.3,1.3 -13.9,5.7 -17.8,12.7 -3.8,7 -4,15 -1.2,21.8 7.3,-1.3 13.9,-5.7 17.8,-12.7 z"
           id="path17" />
        <path
           class="cls-1"
           d="m 116.1,73.3 c 2,-3.7 2.1,-8 0.6,-11.6 -3.9,0.7 -7.4,3 -9.4,6.7 -2,3.7 -2.1,8 -0.6,11.6 3.9,-0.7 7.4,-3 9.4,-6.7 z"
           id="path18" />
        <path
           class="cls-4"
           d="M 117.7,11.6 C 119.3,7.7 118.9,3.5 117,0 c -3.8,1.1 -7,3.8 -8.6,7.7 -1.6,3.9 -1.2,8.1 0.7,11.6 3.8,-1.1 7,-3.8 8.6,-7.7 z"
           id="path19" />
        <path
           class="cls-4"
           d="m 155.6,33.2 c 3.5,-2.4 5.5,-6.1 5.8,-10 -3.7,-1.2 -8,-0.7 -11.5,1.7 -3.5,2.4 -5.5,6.1 -5.8,10 3.7,1.2 8,0.7 11.5,-1.7 z"
           id="path20" />
        <path
           class="cls-2"
           d="m 147,59.7 c 5.8,-4 9.2,-10.2 9.7,-16.8 -6.3,-1.9 -13.3,-1.1 -19.1,2.9 -5.8,4 -9.2,10.2 -9.7,16.8 6.3,1.9 13.3,1.1 19.1,-2.9 z"
           id="path21" />
        <path
           class="cls-4"
           d="m 164.3,85.5 c 9.1,-1 16.7,-6 21.2,-13.1 C 179.6,66.4 171,63 162,64 c -9.1,1 -16.7,6 -21.2,13.1 5.9,6 14.5,9.4 23.5,8.4 z"
           id="path22" />
        <path
           class="cls-2"
           d="m 149.1,113.6 c 7.5,3.2 15.7,2.6 22.3,-0.9 -2,-7.3 -7.2,-13.7 -14.6,-16.9 -7.5,-3.2 -15.7,-2.6 -22.3,0.9 2,7.3 7.2,13.7 14.6,16.9 z"
           id="path23" />
        <path
           class="cls-1"
           d="m 129.6,127.2 c 2.6,3.4 6.5,5.3 10.5,5.4 1,-3.9 0.3,-8.1 -2.3,-11.6 -2.6,-3.4 -6.5,-5.3 -10.5,-5.4 -1,3.9 -0.3,8.1 2.3,11.6 z"
           id="path24" />
        <path
           class="cls-4"
           d="m 54.2,37.5 c -3.8,-7 -4,-15 -1.2,-21.8 7.3,1.3 13.9,5.7 17.8,12.7 3.8,7 4,15 1.2,21.8 C 64.7,48.9 58.1,44.5 54.2,37.5 Z"
           id="path25" />
        <path
           class="cls-1"
           d="m 69.4,73.3 c -2,-3.7 -2.1,-8 -0.6,-11.6 3.9,0.7 7.4,3 9.4,6.7 2,3.7 2.1,8 0.6,11.6 -3.9,-0.7 -7.4,-3 -9.4,-6.7 z"
           id="path26" />
        <path
           class="cls-4"
           d="M 67.8,11.6 C 66.2,7.7 66.6,3.5 68.5,0 c 3.8,1.1 7,3.8 8.6,7.7 1.6,3.9 1.2,8.1 -0.7,11.6 -3.8,-1.1 -7,-3.8 -8.6,-7.7 z"
           id="path27" />
        <path
           class="cls-4"
           d="m 29.9,33.2 c -3.5,-2.4 -5.5,-6.1 -5.8,-10 3.7,-1.2 8,-0.7 11.5,1.7 3.5,2.4 5.5,6.1 5.8,10 -3.7,1.2 -8,0.7 -11.5,-1.7 z"
           id="path28" />
        <path
           class="cls-2"
           d="m 38.5,59.7 c -5.8,-4 -9.2,-10.2 -9.7,-16.8 6.3,-1.9 13.3,-1.1 19.1,2.9 5.8,4 9.2,10.2 9.7,16.8 -6.3,1.9 -13.3,1.1 -19.1,-2.9 z"
           id="path29" />
        <path
           class="cls-4"
           d="M 21.2,85.5 C 12.1,84.5 4.5,79.5 0,72.4 5.9,66.4 14.5,63 23.5,64 c 9.1,1 16.7,6 21.2,13.1 -5.9,6 -14.5,9.4 -23.5,8.4 z"
           id="path30" />
        <path
           class="cls-2"
           d="m 36.4,113.6 c -7.5,3.2 -15.7,2.6 -22.3,-0.9 2,-7.3 7.2,-13.7 14.6,-16.9 7.5,-3.2 15.7,-2.6 22.3,0.9 -2,7.3 -7.2,13.7 -14.6,16.9 z"
           id="path31" />
        <path
           class="cls-1"
           d="m 55.9,127.2 c -2.6,3.4 -6.5,5.3 -10.5,5.4 -1,-3.9 -0.3,-8.1 2.3,-11.6 2.6,-3.5 6.5,-5.3 10.5,-5.4 1,3.9 0.3,8.1 -2.3,11.6 z"
           id="path32" />
        <path
           class="cls-3"
           d="m 54.9,181.9 c 6.2,-1.9 12.4,-2.8 18.5,-3.5 3.1,-0.4 6.2,-0.5 9.3,-0.7 3.1,-0.1 6.2,-0.2 9.3,-0.2 3.1,0 6.2,0.1 9.3,0.2 3.1,0.2 6.2,0.3 9.3,0.7 6.2,0.7 12.4,1.6 18.5,3.5 v 0.5 L 92,182.7 54.9,182.4 Z"
           id="path33" />
        <path
           class="cls-3"
           d="m 107.1,179.9 c 0,0 -8.5,-35.7 -3.5,-51 9.2,-28.1 31.7,-56.7 31.7,-56.7 0,0 -16.5,9.5 -25.5,18.3 -9.1,8.8 -17,20.2 -17,20.2 0,0 -8,-11.3 -17,-20.1 -9.1,-8.8 -25.5,-18.3 -25.5,-18.3 0,0 22.6,28.6 31.7,56.7 5,15.3 -3.5,51 -3.5,51"
           id="path34" />
      </g>
    </g>
  </g>
</svg>
